<?xml version="1.0" encoding="UTF-8" standalone="no"?>
<!-- Uploaded to: SVG Repo, www.svgrepo.com, Generator: SVG Repo Mixer Tools -->

<svg
   height="800px"
   width="800px"
   version="1.1"
   id="Layer_1"
   viewBox="0 0 509 509"
   xml:space="preserve"
   sodipodi:docname="seal-1.svg"
   inkscape:version="1.2.2 (732a01da63, 2022-12-09)"
   xmlns:inkscape="http://www.inkscape.org/namespaces/inkscape"
   xmlns:sodipodi="http://sodipodi.sourceforge.net/DTD/sodipodi-0.dtd"
   xmlns="http://www.w3.org/2000/svg"
   xmlns:svg="http://www.w3.org/2000/svg"><defs
   id="defs2113" /><sodipodi:namedview
   id="namedview2111"
   pagecolor="#ffffff"
   bordercolor="#000000"
   borderopacity="0.25"
   inkscape:showpageshadow="2"
   inkscape:pageopacity="0.0"
   inkscape:pagecheckerboard="0"
   inkscape:deskcolor="#d1d1d1"
   showgrid="false"
   inkscape:zoom="2.1663092"
   inkscape:cx="477.77114"
   inkscape:cy="360.52103"
   inkscape:window-width="1920"
   inkscape:window-height="1009"
   inkscape:window-x="-8"
   inkscape:window-y="-8"
   inkscape:window-maximized="1"
   inkscape:current-layer="Layer_1" />

<path
   style="fill:#DEDEDF;"
   d="M289.5,442.5c22.3-10,47.8-8.4,72.2-8.1c2.8,0,5.8,0,8.4-1.3c2.5-1.3,4.5-4.3,3.6-7  c-0.4-1.4-1.5-2.5-2.6-3.4c-7.1-5.7-17-6.3-24.9-10.8c-8.6-4.9-13.8-14-18.7-22.6c-2.8-5-5.6-10-8.4-15l-35,41.7L289.5,442.5z"
   id="path2090" />
<path
   style="fill:#f1f3f7"
   d="m 326.00116,184.70805 -6.90748,-20.89226 c 16.3326,8.6521 0,0 0,0 -33.7,-0.8 -80.66436,2.96781 -99.66436,51.06781 -19,48.1 -21.72932,111.8164 -43.62932,124.2164 -21.9,12.4 -29.2,-48.8 -29.2,-48.8 49.6,-51 6.6,-92.7 6.6,-92.7 0,0 9.5,12.4 -16.8,37.2 -26.3,24.8 -18.2,36.9 -18.2,36.9 0,0 -19,-12.9 -51.1,0 -32.1,12.9 -40.8,3.2 -40.8,3.2 19,52.5 78,43 78,43 -14.3,95.5 48,146.7 112.9,146.7 -0.3,0.3 -0.6,0.7 -0.9,1 -3.5,3.7 -7.8,8 -6.9,13 0.9,5.6 7.5,8.2 13.2,8.8 18.6,2 37,-5.4 52.9,-15.2 5.6,-3.4 11.1,-7.3 15.1,-12.5 5.7,-7.5 7.4,-16.4 8.1,-25.9 71.9,-64 1.7,-150.4 2.4,-179.3 -0.96143,-21.3082 -5.5321,-11.40077 15.08618,-19.30314 14.63468,-9.41195 20.42285,-28.01652 24.14321,-43.77302 z"
   id="path2092"
   sodipodi:nodetypes="cccssccscsccccccccccccc" />
<path
   style="fill:#646b79"
   d="m 340.32939,191.42384 c 4.00975,-8.21535 5.65421,-14.27305 5.65421,-14.27305 -5.08439,-14.99597 -24.19906,-13.57849 -26.88992,-13.335 l 6.90748,20.89226 z"
   id="path2094" />
<path
   style="fill:#DEDEDF;"
   d="M237.2,392.4c0,0-0.1,0.2-0.3,0.6s-0.5,1.1-0.7,1.9c-0.6,1.7-1.1,4.2-1.3,7.5s0.2,7.3,0.6,11.9  c0.2,2.3,0.4,4.9,0.4,7.5c0,2.7-0.2,5.5-0.6,8.4c-0.7,5.8-2.3,12-5,18.2s-6.4,12.4-11.3,17.9c-2.4,2.8-5,5.2-6.3,8  c-1.3,2.7-0.9,5.3,1.3,7.2c2.2,1.9,5.6,3,9,3.4c3.7,0.4,7.2,0.4,10.9,0.1c7.3-0.6,14.5-2.5,21.3-5.1c3.4-1.3,6.7-2.8,10-4.4  c3.2-1.6,6.4-3.4,9.4-5.1c6-3.6,11.6-7.5,15.2-12.4c0.5-0.7,0.9-1.3,1.4-2c0.4-0.7,0.7-1.3,1.1-1.9l0.5-1l0.5-1  c0.3-0.7,0.6-1.4,0.9-2c1-2.8,1.9-5.5,2.4-8.3c1.1-5.5,1.5-10.7,1.8-15.3c0.3-4.6,0.6-8.7,1-12s0.8-5.9,1.1-7.7  c0.4-1.8,0.6-2.7,0.6-2.7s-0.1,0.9-0.3,2.7c-0.2,1.8-0.3,4.4-0.4,7.7c-0.1,3.3,0,7.4,0,12c0,4.7,0,10-0.9,15.8c-0.4,2.9-1.1,5.9-2,9  c-0.3,0.8-0.6,1.5-0.9,2.3l-0.5,1.2l-0.6,1.1c-0.4,0.8-0.8,1.6-1.2,2.3c-0.4,0.7-0.9,1.4-1.3,2c-3.9,5.9-9.9,10.3-16,14.1  c-6.2,3.8-12.7,7.5-19.9,10.4c-7.1,2.8-14.8,5-22.7,5.7c-3.9,0.3-8.1,0.3-11.9-0.2c-2.1-0.3-4.1-0.7-6.1-1.4c-2-0.7-4-1.7-5.7-3.3  c-0.9-0.8-1.6-1.7-2.3-2.8l-0.4-0.8l-0.4-1c-0.3-0.8-0.2-0.8-0.4-1.7c-0.2-1.2-0.1-2.5,0.1-3.6c0.2-1.2,0.7-2.2,1.1-3.2  c2-3.9,5-6.4,7.3-9c4.7-5,8.4-10.7,11.2-16.4c2.7-5.7,4.6-11.5,5.6-17c0.5-2.8,0.8-5.4,1-7.9c0.2-2.6,0.2-5,0.2-7.3  c-0.1-4.6-0.1-8.8,0.4-12.1c0.4-3.4,1.3-5.9,2-7.5c0.4-0.8,0.7-1.4,0.9-1.8C237.1,392.7,237.2,392.4,237.2,392.4z"
   id="path2096" />


<ellipse
   style="fill:#646b79"
   cx="284.10001"
   cy="180.65253"
   rx="9.3000002"
   ry="8.6000004"
   id="ellipse2106" />
<path
   style="fill:#DEDEDF;"
   d="M187.6,334.6c0,0-13.8,12.3-13.4,27.9c0,0-3.5-13.1,0-18.8c0,0-26.8,5.5-31.9,30.6  c0,0,3.3-31.9,18.5-33.5c0,0,20.3,12,26.8-20.6C187.6,320.1,183.2,336.1,187.6,334.6z"
   id="path2108" />
<path
   style="fill:#dededf;stroke-width:0.973143"
   d="m 291.15266,236.64968 c 0,0 0,0 -15.83346,2.65194 38.54749,0.27408 12.62168,2.26816 30.11972,-0.84565 0.0992,0.0125 -8.76213,-0.62396 -14.28626,-1.80629 z"
   id="path2419"
   sodipodi:nodetypes="cccc" /></svg>
