<?xml version="1.0" encoding="UTF-8" standalone="no"?>
<!-- Uploaded to: SVG Repo, www.svgrepo.com, Generator: SVG Repo Mixer Tools -->

<svg
   height="800px"
   width="800px"
   version="1.1"
   id="Layer_1"
   viewBox="0 0 509 509"
   xml:space="preserve"
   sodipodi:docname="seal-2.svg"
   inkscape:version="1.2.2 (732a01da63, 2022-12-09)"
   xmlns:inkscape="http://www.inkscape.org/namespaces/inkscape"
   xmlns:sodipodi="http://sodipodi.sourceforge.net/DTD/sodipodi-0.dtd"
   xmlns="http://www.w3.org/2000/svg"
   xmlns:svg="http://www.w3.org/2000/svg"><defs
   id="defs2113" /><sodipodi:namedview
   id="namedview2111"
   pagecolor="#ffffff"
   bordercolor="#000000"
   borderopacity="0.25"
   inkscape:showpageshadow="2"
   inkscape:pageopacity="0.0"
   inkscape:pagecheckerboard="0"
   inkscape:deskcolor="#d1d1d1"
   showgrid="false"
   inkscape:zoom="0.96304092"
   inkscape:cx="198.84929"
   inkscape:cy="461.0396"
   inkscape:window-width="1920"
   inkscape:window-height="1009"
   inkscape:window-x="-8"
   inkscape:window-y="-8"
   inkscape:window-maximized="1"
   inkscape:current-layer="Layer_1" />






<g
   id="g854"
   transform="rotate(51.173434,180.65273,-210.35245)"><path
     style="fill:#fbd303"
     d="m 338.8,69.8 c 0,-13.2 5.7,-25 14.9,-33.1 -7.8,-7 -18.2,-11.3 -29.5,-11.3 -11.3,0 -21.7,4.3 -29.5,11.3 9.1,8.1 14.9,20 14.9,33.1 0,13.1 -5.7,25 -14.9,33.1 7.8,7 18.2,11.3 29.5,11.3 11.3,0 21.7,-4.3 29.5,-11.3 C 344.6,94.8 338.8,83 338.8,69.8 Z"
     id="path2098" /><g
     id="g2104">
	<path
   style="fill:#ee4a68"
   d="m 309.4,69.8 c 0,-13.2 -5.7,-25 -14.9,-33.1 -9.1,8.1 -14.9,20 -14.9,33.1 0,13.1 5.7,25 14.9,33.1 9.2,-8.1 14.9,-19.9 14.9,-33.1 z"
   id="path2100" />
	<path
   style="fill:#ee4a68"
   d="m 368.5,69.8 c 0,-13.2 -5.7,-25 -14.9,-33.1 -9.1,8.1 -14.9,20 -14.9,33.1 0,13.1 5.7,25 14.9,33.1 9.2,-8.1 14.9,-19.9 14.9,-33.1 z"
   id="path2102" />
</g></g>

<g
   id="g972"
   transform="rotate(27.110081,24.651943,183.40018)"><path
     style="fill:#dededf;stroke-width:0.993988"
     d="m 369.57317,331.26971 c -21.46773,11.16135 -35.76082,31.97052 -50.40582,51.12219 -1.70766,2.17648 -3.53729,4.50842 -6.14574,5.72698 -2.54747,1.14083 -6.12746,0.84363 -7.70278,-1.52261 -0.85749,-1.17511 -1.05205,-2.70916 -1.08925,-4.11976 -0.15432,-9.03741 5.41142,-17.1032 6.6891,-26.02173 1.38989,-9.70957 -2.59813,-19.36883 -6.37574,-28.48625 -2.22607,-5.26287 -4.45214,-10.52574 -6.67821,-15.78861 l 54.15302,-1.46555 z"
     id="path2090" /><path
     style="fill:#f1f3f7;stroke-width:0.993988"
     d="m 112.26409,162.03751 4.52282,-21.31669 c 0.21834,0.0457 0.27933,-0.032 0.27933,-0.032 19.92348,-26.68933 67.99658,-46.488051 117.42672,-31.566 49.43015,14.92206 99.96184,79.3087 123.07381,69.93975 23.11197,-9.36896 50.13368,-53.71356 50.13368,-53.71356 -51.48629,-28.290491 -19.5684,-85.357062 -19.5684,-85.357062 0,0 -5.61421,12.25733 26.6782,27.987776 31.53242,15.360239 29.65718,28.723678 29.65718,28.723678 0,0 0.3675,-10.474336 34.37969,-14.403256 C 509,78.817034 509,66.626284 509,66.626284 c 0,64.456256 -52.66059,69.491386 -52.66059,69.491386 15.94019,82.79669 14.29607,102.14629 -25.285,152.59402 0.41899,-0.048 0.91665,-0.0343 1.33564,-0.0823 5.04553,-0.43668 11.05101,-1.12484 14.43585,2.66113 3.85689,4.15633 1.87723,10.89153 -1.12702,15.69259 -9.77024,15.69261 -26.81391,25.42735 -44.22107,31.73734 -6.09026,2.25422 -12.51289,4.12207 -19.04348,4.02149 -9.3769,-0.19889 -17.41573,-4.37122 -25.31672,-9.69123 -94.20194,16.38319 -108.40324,-105.64819 -131.5671,-122.94338 -23.39989,-17.48038 -43.45208,-0.18511 -80.90784,-6.71677 -23.25593,-4.05571 -37.95954,-21.11772 -45.906908,-33.50672 z"
     id="path2092"
     sodipodi:nodetypes="cccssccscsccccccccccccc" /><path
     style="fill:#646b79;stroke-width:0.993988"
     d="m 98.832124,170.08502 c -4.875392,-7.71826 -7.17221,-13.53897 -7.17221,-13.53897 3.371382,-15.31308 22.438036,-15.80008 25.126996,-15.82523 l -4.52282,21.31669 z"
     id="path2094" /><path
     style="fill:#dededf;stroke-width:0.993988"
     d="m 362.05382,259.69056 c 0,0 0.21834,0.0457 0.65501,0.13717 0.43667,0.0915 1.17036,0.29035 1.92173,0.62871 1.70339,0.58298 3.9752,1.73752 6.69343,3.61907 2.71824,1.88155 5.62127,4.66159 8.99635,7.81199 1.68754,1.5752 3.6111,3.33558 5.65664,4.9405 2.12422,1.66665 4.44908,3.23956 6.97459,4.71874 4.99004,3.03609 10.84367,5.61951 17.36816,7.34788 6.5245,1.72836 13.65887,2.67942 20.97437,2.2656 3.6666,-0.13718 7.14047,-0.67673 10.1362,0.0411 2.91705,0.65613 4.71864,2.57198 4.87173,5.4549 0.15308,2.88292 -1.05508,6.2048 -2.81397,9.09458 -1.94185,3.12297 -4.07642,5.84357 -6.56899,8.53446 -4.92416,5.30403 -10.8101,9.72787 -17.0028,13.40869 -3.09636,1.84041 -6.28907,3.47963 -9.56046,5.05712 -3.2104,1.49977 -6.57816,2.87608 -9.74526,4.15865 -6.49155,2.44169 -12.97517,4.38727 -19.02579,4.16095 -0.85566,-0.0434 -1.57166,-0.10288 -2.42732,-0.14632 -0.79467,-0.12117 -1.44968,-0.25834 -2.16568,-0.31778 l -1.09168,-0.22862 -1.09169,-0.22862 c -0.73368,-0.1989 -1.46737,-0.3978 -2.12238,-0.53497 -2.81276,-0.95106 -5.48587,-1.91813 -7.9937,-3.25784 -4.99796,-2.53998 -9.33299,-5.4389 -13.13498,-8.04518 -3.802,-2.60628 -7.21062,-4.90392 -10.05083,-6.63001 -2.84021,-1.72609 -5.1297,-3.02009 -6.72881,-3.89799 -1.66009,-0.80017 -2.49014,-1.20026 -2.49014,-1.20026 0,0 0.76906,0.47782 2.30718,1.43345 1.53812,0.95564 3.64464,2.48283 6.30189,4.44211 2.65725,1.95929 5.82192,4.56785 9.44095,7.40733 3.6977,2.9012 7.86746,6.17277 12.97947,9.0534 2.52552,1.47918 5.31267,2.78689 8.30047,4.00086 0.81236,0.26063 1.54604,0.45953 2.3584,0.72016 l 1.24904,0.35207 1.23134,0.21262 c 0.87335,0.18289 1.7467,0.36579 2.54137,0.48696 0.79468,0.12117 1.65034,0.1646 2.36634,0.22404 7.02032,0.61041 14.14127,-1.33746 20.85115,-3.73342 6.77088,-2.4737 13.64605,-5.24232 20.31873,-9.04888 6.53302,-3.79056 12.95992,-8.41788 18.32867,-14.12657 2.61455,-2.84634 5.17604,-6.11107 7.1002,-9.3735 1.04472,-1.81755 1.94978,-3.61909 2.61881,-5.60581 0.66904,-1.98672 1.10205,-4.15863 0.88004,-6.46771 -0.0805,-1.1934 -0.36166,-2.29307 -0.80016,-3.5162 l -0.38545,-0.80475 -0.54279,-0.9282 c -0.44644,-0.72702 -0.50743,-0.64928 -1.09352,-1.3603 -0.82212,-0.89619 -1.90588,-1.62092 -2.89327,-2.14446 -1.06607,-0.58527 -2.15776,-0.81389 -3.18845,-1.12024 -4.28807,-0.85276 -8.08457,-0.064 -11.53282,0.1189 -6.80016,0.56699 -13.54116,-0.0754 -19.73326,-1.41742 -6.13113,-1.41973 -11.85302,-3.52304 -16.79,-6.14075 -2.50782,-1.33972 -4.73633,-2.71145 -6.82517,-4.09918 -2.16751,-1.44946 -4.0557,-2.93092 -5.86522,-4.35066 -3.55804,-2.91721 -6.86237,-5.50977 -9.76357,-7.15813 -2.91889,-1.78782 -5.43464,-2.63143 -7.12035,-3.07495 -0.87335,-0.18289 -1.52836,-0.32007 -1.96503,-0.41151 -0.61171,-0.35437 -0.90872,-0.46182 -0.90872,-0.46182 z"
     id="path2096" /><ellipse
     style="fill:#646b79;stroke-width:0.993988"
     cx="13.624865"
     cy="213.04536"
     rx="9.1885185"
     ry="8.6000004"
     id="ellipse2106"
     transform="matrix(-0.61727725,0.7867457,0.7867457,0.61727725,0,0)" /><path
     style="fill:#dededf;stroke-width:0.993988"
     d="m 346.82986,185.45712 c 0,0 18.09328,-3.13443 30.12256,6.80602 0,0 -8.17179,-10.80693 -14.79082,-11.60481 0,0 22.68116,-10.20343 45.53885,1.32592 0,0 -15.79654,-17.90439 -32.41447,-11.89923 0,0 -10.17315,21.554 -39.78526,6.48331 -0.0787,-0.0617 15.19272,6.39452 11.32914,8.88879 z"
     id="path2108"
     sodipodi:nodetypes="ccccccc" /></g>
</svg>
