<?xml version="1.0" encoding="UTF-8" standalone="no"?>
<svg
   id="visual"
   viewBox="0 0 900 1400"
   width="900"
   height="1400"
   version="1.1"
   sodipodi:docname="transition.svg"
   inkscape:version="1.3.2 (091e20ef0f, 2023-11-25)"
   xmlns:inkscape="http://www.inkscape.org/namespaces/inkscape"
   xmlns:sodipodi="http://sodipodi.sourceforge.net/DTD/sodipodi-0.dtd"
   xmlns="http://www.w3.org/2000/svg"
   xmlns:svg="http://www.w3.org/2000/svg">
  <defs
     id="defs5" />
  <sodipodi:namedview
     id="namedview5"
     pagecolor="#ffffff"
     bordercolor="#000000"
     borderopacity="0.25"
     inkscape:showpageshadow="2"
     inkscape:pageopacity="0.0"
     inkscape:pagecheckerboard="0"
     inkscape:deskcolor="#d1d1d1"
     inkscape:zoom="0.93220242"
     inkscape:cx="362.04583"
     inkscape:cy="552.99149"
     inkscape:window-width="1920"
     inkscape:window-height="995"
     inkscape:window-x="0"
     inkscape:window-y="0"
     inkscape:window-maximized="1"
     inkscape:current-layer="visual" />
  <path
     d="m 0,131 21.5,-1 C 43,129 86,127 128.8,103.3 171.7,79.7 214.3,34.3 257.2,35.8 300,37.3 343,85.7 385.8,100.2 428.7,114.7 471.3,95.3 514.2,94.8 557,94.3 600,112.7 642.8,97.3 685.7,82 728.3,33 771.2,26.2 814,19.3 857,54.7 878.5,72.3 L 900,90 v 389 h -21.5 c -21.5,0 -64.5,0 -107.3,0 -42.9,0 -85.5,0 -128.4,0 -42.8,0 -85.8,0 -128.6,0 -42.9,0 -85.5,0 -128.4,0 -42.8,0 -85.8,0 -128.6,0 -42.9,0 -85.5,0 -128.4,0 C 86,479 43,479 21.5,479 H 0 Z"
     fill="#7c9cd9"
     id="path1" />
  <path
     d="m 0,207 21.5,-14.7 c 21.5,-14.6 64.5,-44 107.3,-48 42.9,-4 85.5,17.4 128.4,18.9 42.8,1.5 85.8,-16.9 128.6,-25.2 42.9,-8.3 85.5,-6.7 128.4,-10.5 42.8,-3.8 85.8,-13.2 128.6,7.3 42.9,20.5 85.5,70.9 128.4,81.9 42.8,11 85.8,-17.4 107.3,-31.5 L 900,171 v 326 h -21.5 c -21.5,0 -64.5,0 -107.3,0 -42.9,0 -85.5,0 -128.4,0 -42.8,0 -85.8,0 -128.6,0 -42.9,0 -85.5,0 -128.4,0 -42.8,0 -85.8,0 -128.6,0 -42.9,0 -85.5,0 -128.4,0 C 86,497 43,497 21.5,497 H 0 Z"
     fill="#6a89c4"
     id="path2" />
  <path
     d="m 0,248 21.5,-9.8 C 43,228.3 86,208.7 128.8,215.7 c 42.9,7 85.5,40.6 128.4,40 C 300,255 343,220 385.8,205 c 42.9,-15 85.5,-10 128.4,1.7 42.8,11.6 85.8,30 128.6,36.5 42.9,6.5 85.5,1.1 128.4,0.1 42.8,-1 85.8,2.4 107.3,4 L 900,249 v 262 h -21.5 c -21.5,0 -64.5,0 -107.3,0 -42.9,0 -85.5,0 -128.4,0 -42.8,0 -85.8,0 -128.6,0 -42.9,0 -85.5,0 -128.4,0 -42.8,0 -85.8,0 -128.6,0 -42.9,0 -85.5,0 -128.4,0 C 86,511 43,511 21.5,511 H 0 Z"
     fill="#5976af"
     id="path3" />
  <path
     d="m 0,287 21.5,15.8 c 21.5,15.9 64.5,47.5 107.3,61.7 42.9,14.2 85.5,10.8 128.4,-2.3 42.8,-13.2 85.8,-36.2 128.6,-41 42.9,-4.9 85.5,8.5 128.4,9.1 C 557,331 600,319 642.8,319.5 685.7,320 728.3,333 771.2,330.5 814,328 857,310 878.5,301 l 21.5,-9 v 233 h -21.5 c -21.5,0 -64.5,0 -107.3,0 -42.9,0 -85.5,0 -128.4,0 -42.8,0 -85.8,0 -128.6,0 -42.9,0 -85.5,0 -128.4,0 -42.8,0 -85.8,0 -128.6,0 -42.9,0 -85.5,0 -128.4,0 C 86,525 43,525 21.5,525 H 0 Z"
     fill="#48649a"
     id="path4" />
  <g
     id="g1">
    <path
       d="M 0,521.06608 21.5,500.93392 C 43,480.93869 86,440.67433 128.8,429.03328 c 42.9,-11.64105 85.5,5.34119 128.4,5.06728 42.8,-0.2739 85.8,-17.53006 128.6,-5.20424 42.9,12.32583 85.5,54.23363 128.4,62.72475 42.8,8.49112 85.8,-16.70834 128.6,-31.91019 42.9,-15.3388 85.5,-20.81695 128.4,-11.50411 42.8,9.44981 85.8,33.55363 107.3,45.7425 l 21.5,12.05192 v 94.49798 h -21.5 c -21.5,0 -64.5,0 -107.3,0 -42.9,0 -85.5,0 -128.4,0 -42.8,0 -85.8,0 -128.6,0 -42.9,0 -85.5,0 -128.4,0 -42.8,0 -85.8,0 -128.6,0 -42.9,0 -85.5,0 -128.4,0 -42.8,0 -85.8,0 -107.3,0 H 0 Z"
       fill="#375286"
       id="path5"
       style="stroke-width:1.17027" />
    <rect
       style="fill:#375286;fill-opacity:1;stroke-width:1.42431"
       id="rect1"
       width="900"
       height="810.44604"
       x="0"
       y="589.55396" />
  </g>
</svg>
