<?xml version="1.0" encoding="UTF-8" standalone="no"?>
<svg
   id="visual"
   viewBox="0 0 900 220"
   width="900"
   height="220"
   version="1.1"
   sodipodi:docname="waves_flipped.svg"
   inkscape:version="1.3.2 (091e20ef0f, 2023-11-25)"
   xmlns:inkscape="http://www.inkscape.org/namespaces/inkscape"
   xmlns:sodipodi="http://sodipodi.sourceforge.net/DTD/sodipodi-0.dtd"
   xmlns="http://www.w3.org/2000/svg"
   xmlns:svg="http://www.w3.org/2000/svg">
  <defs
     id="defs5" />
  <sodipodi:namedview
     id="namedview5"
     pagecolor="#ffffff"
     bordercolor="#000000"
     borderopacity="0.25"
     inkscape:showpageshadow="2"
     inkscape:pageopacity="0.0"
     inkscape:pagecheckerboard="0"
     inkscape:deskcolor="#d1d1d1"
     inkscape:zoom="1.3183333"
     inkscape:cx="444.12138"
     inkscape:cy="119.46903"
     inkscape:window-width="1920"
     inkscape:window-height="995"
     inkscape:window-x="0"
     inkscape:window-y="0"
     inkscape:window-maximized="1"
     inkscape:current-layer="visual" />
  <path
     d="m 900,219 -18.8,-6.5 c -18.9,-6.5 -56.5,-19.5 -94,-25.7 -37.5,-6.1 -74.9,-5.5 -112.4,-6.6 -37.5,-1.2 -75.1,-4.2 -112.6,3.6 -37.5,7.9 -74.9,26.5 -112.4,30 -37.5,3.5 -75.1,-8.1 -112.6,-7.8 -37.5,0.3 -74.9,12.7 -112.4,11.5 -37.5,-1.2 -75.1,-15.8 -112.6,-24 -37.5,-8.2 -74.9,-9.8 -93.5,-10.7 L 0,182 V 0 h 18.7 c 18.6,0 56,0 93.5,0 37.5,0 75.1,0 112.6,0 37.5,0 74.9,0 112.4,0 37.5,0 75.1,0 112.6,0 37.5,0 74.9,0 112.4,0 37.5,0 75.1,0 112.6,0 37.5,0 74.9,0 112.4,0 37.5,0 75.1,0 94,0 H 900 Z"
     fill="#6990fa"
     id="path1" />
  <path
     d="m 900,158 -18.8,4.2 c -18.9,4.1 -56.5,12.5 -94,9.8 -37.5,-2.7 -74.9,-16.3 -112.4,-26.8 -37.5,-10.5 -75.1,-17.9 -112.6,-13.4 -37.5,4.5 -74.9,20.9 -112.4,31 C 412.3,173 374.7,177 337.2,168 299.7,159 262.3,137 224.8,129.2 187.3,121.3 149.7,127.7 112.2,131.8 74.7,136 37.3,138 18.7,139 L 0,140 V 0 h 18.7 c 18.6,0 56,0 93.5,0 37.5,0 75.1,0 112.6,0 37.5,0 74.9,0 112.4,0 37.5,0 75.1,0 112.6,0 37.5,0 74.9,0 112.4,0 37.5,0 75.1,0 112.6,0 37.5,0 74.9,0 112.4,0 37.5,0 75.1,0 94,0 H 900 Z"
     fill="#5980ee"
     id="path2" />
  <path
     d="m 900,129 -18.8,-0.5 c -18.9,-0.5 -56.5,-1.5 -94,0.5 -37.5,2 -74.9,7 -112.4,1 -37.5,-6 -75.1,-23 -112.6,-23.8 -37.5,-0.9 -74.9,14.5 -112.4,15.1 -37.5,0.7 -75.1,-13.3 -112.6,-15.5 -37.5,-2.1 -74.9,7.5 -112.4,17 -37.5,9.5 -75.1,18.9 -112.6,22.4 -37.5,3.5 -74.9,1.1 -93.5,0 L 0,144 V 0 h 18.7 c 18.6,0 56,0 93.5,0 37.5,0 75.1,0 112.6,0 37.5,0 74.9,0 112.4,0 37.5,0 75.1,0 112.6,0 37.5,0 74.9,0 112.4,0 37.5,0 75.1,0 112.6,0 37.5,0 74.9,0 112.4,0 37.5,0 75.1,0 94,0 H 900 Z"
     fill="#4970e1"
     id="path3" />
  <path
     d="m 900,108 -18.8,-4.2 c -18.9,-4.1 -56.5,-12.5 -94,-16 -37.5,-3.5 -74.9,-2.1 -112.4,-0.1 -37.5,2 -75.1,4.6 -112.6,2.5 C 524.7,88 487.3,81 449.8,80.7 412.3,80.3 374.7,86.7 337.2,87.2 299.7,87.7 262.3,82.3 224.8,83.7 187.3,85 149.7,93 112.2,88.2 74.7,83.3 37.3,65.7 18.7,56.8 L 0,48 V 0 h 18.7 c 18.6,0 56,0 93.5,0 37.5,0 75.1,0 112.6,0 37.5,0 74.9,0 112.4,0 37.5,0 75.1,0 112.6,0 37.5,0 74.9,0 112.4,0 37.5,0 75.1,0 112.6,0 37.5,0 74.9,0 112.4,0 37.5,0 75.1,0 94,0 H 900 Z"
     fill="#3860d4"
     id="path4" />
  <path
     d="m 900,28 -18.8,6.5 C 862.3,41 824.7,54 787.2,51.3 749.7,48.7 712.3,30.3 674.8,29.5 637.3,28.7 599.7,45.3 562.2,49 524.7,52.7 487.3,43.3 449.8,35.8 412.3,28.3 374.7,22.7 337.2,26.5 299.7,30.3 262.3,43.7 224.8,52.7 187.3,61.7 149.7,66.3 112.2,59 74.7,51.7 37.3,32.3 18.7,22.7 L 0,13 V 0 h 18.7 c 18.6,0 56,0 93.5,0 37.5,0 75.1,0 112.6,0 37.5,0 74.9,0 112.4,0 37.5,0 75.1,0 112.6,0 37.5,0 74.9,0 112.4,0 37.5,0 75.1,0 112.6,0 37.5,0 74.9,0 112.4,0 37.5,0 75.1,0 94,0 H 900 Z"
     fill="#2450c7"
     id="path5" />
</svg>
