<?xml version="1.0" encoding="UTF-8" standalone="no"?>
<svg
   id="visual"
   viewBox="0 0 900 320"
   width="900"
   height="320"
   version="1.1"
   sodipodi:docname="waves.svg"
   inkscape:version="1.2.2 (732a01da63, 2022-12-09)"
   xml:space="preserve"
   xmlns:inkscape="http://www.inkscape.org/namespaces/inkscape"
   xmlns:sodipodi="http://sodipodi.sourceforge.net/DTD/sodipodi-0.dtd"
   xmlns="http://www.w3.org/2000/svg"
   xmlns:svg="http://www.w3.org/2000/svg"><defs
     id="defs5"><rect
       x="114.31041"
       y="129.86035"
       width="202.58475"
       height="270.13965"
       id="rect1" /><rect
       x="114.31041"
       y="129.86035"
       width="202.58475"
       height="270.13965"
       id="rect2" /></defs><sodipodi:namedview
     id="namedview5"
     pagecolor="#ffffff"
     bordercolor="#000000"
     borderopacity="0.25"
     inkscape:showpageshadow="2"
     inkscape:pageopacity="0.0"
     inkscape:pagecheckerboard="0"
     inkscape:deskcolor="#d1d1d1"
     inkscape:zoom="0.93220242"
     inkscape:cx="394.76405"
     inkscape:cy="26.81821"
     inkscape:window-width="1920"
     inkscape:window-height="1009"
     inkscape:window-x="-8"
     inkscape:window-y="-8"
     inkscape:window-maximized="1"
     inkscape:current-layer="visual"
     showguides="true"
     showgrid="false"><sodipodi:guide
       position="0,320"
       orientation="0,900"
       id="guide20"
       inkscape:locked="false" /><sodipodi:guide
       position="900,320"
       orientation="320,0"
       id="guide21"
       inkscape:locked="false" /><sodipodi:guide
       position="900,0"
       orientation="0,-900"
       id="guide22"
       inkscape:locked="false" /><sodipodi:guide
       position="0,0"
       orientation="-320,0"
       id="guide23"
       inkscape:locked="false" /><sodipodi:guide
       position="450,320"
       orientation="-1,0"
       id="guide24"
       inkscape:locked="false"
       inkscape:label=""
       inkscape:color="rgb(0,134,229)" /><sodipodi:guide
       position="0.24593064,160"
       orientation="0,1"
       id="guide25"
       inkscape:locked="false"
       inkscape:label=""
       inkscape:color="rgb(0,134,229)" /></sodipodi:namedview><path
     d="m 0.24593064,102.23984 18.79999936,6.5 c 18.900002,6.5 56.500002,19.5 94,25.7 37.5,6.09999 74.9,5.49999 112.4,6.59999 37.5,1.2 75.1,4.2 112.6,-3.6 37.5,-7.89999 74.9,-26.49999 112.4,-29.99999 37.5,-3.5 75.1,8.1 112.6,7.8 37.5,-0.3 74.9,-12.7 112.4,-11.5 37.5,1.2 75.1,15.8 112.6,24 37.5,8.2 74.9,9.79999 93.5,10.69999 l 18.7,0.8 v 182 h -18.7 c -18.6,0 -56,0 -93.5,0 -37.5,0 -75.1,0 -112.6,0 -37.5,0 -74.9,0 -112.4,0 -37.5,0 -75.1,0 -112.6,0 -37.5,0 -74.9,0 -112.4,0 -37.5,0 -75.1,0 -112.6,0 -37.5,0 -74.9,0 -112.4,0 -37.499998,0 -75.099998,0 -94,0 H 0.24593064 Z"
     fill="#6990fa"
     id="path1"
     style="fill:#91adfa;fill-opacity:1" /><path
     d="m 0.24593064,163.23983 18.79999936,-4.2 c 18.900002,-4.1 56.500002,-12.5 94,-9.8 37.5,2.7 74.9,16.3 112.4,26.8 37.5,10.5 75.1,17.9 112.6,13.4 37.5,-4.5 74.9,-20.9 112.4,-31 37.5,-10.2 75.1,-14.2 112.6,-5.2 37.5,9 74.9,31 112.4,38.8 37.5,7.9 75.1,1.5 112.6,-2.6 37.5,-4.2 74.9,-6.2 93.5,-7.2 l 18.7,-1 v 140 h -18.7 c -18.6,0 -56,0 -93.5,0 -37.5,0 -75.1,0 -112.6,0 -37.5,0 -74.9,0 -112.4,0 -37.5,0 -75.1,0 -112.6,0 -37.5,0 -74.9,0 -112.4,0 -37.5,0 -75.1,0 -112.6,0 -37.5,0 -74.9,0 -112.4,0 -37.499998,0 -75.099998,0 -94,0 H 0.24593064 Z"
     fill="#5980ee"
     id="path2"
     style="fill:#7495f1;fill-opacity:1" /><path
     d="m 0.24593064,192.23983 18.79999936,0.5 c 18.900002,0.5 56.500002,1.5 94,-0.5 37.5,-2 74.9,-7 112.4,-1 37.5,6 75.1,23 112.6,23.8 37.5,0.9 74.9,-14.5 112.4,-15.1 37.5,-0.7 75.1,13.3 112.6,15.5 37.5,2.1 74.9,-7.5 112.4,-17 37.5,-9.5 75.1,-18.9 112.6,-22.4 37.5,-3.5 74.9,-1.1 93.5,0 l 18.7,1.2 v 144 h -18.7 c -18.6,0 -56,0 -93.5,0 -37.5,0 -75.1,0 -112.6,0 -37.5,0 -74.9,0 -112.4,0 -37.5,0 -75.1,0 -112.6,0 -37.5,0 -74.9,0 -112.4,0 -37.5,0 -75.1,0 -112.6,0 -37.5,0 -74.9,0 -112.4,0 -37.499998,0 -75.099998,0 -94,0 H 0.24593064 Z"
     fill="#4970e1"
     id="path3"
     style="fill:#557ae3;fill-opacity:1" /><path
     d="m 0.24593064,213.23983 18.79999936,4.2 c 18.900002,4.1 56.500002,12.5 94,16 37.5,3.5 74.9,2.1 112.4,0.1 37.5,-2 75.1,-4.6 112.6,-2.5 37.5,2.2 74.9,9.2 112.4,9.5 37.5,0.4 75.1,-6 112.6,-6.5 37.5,-0.5 74.9,4.9 112.4,3.5 37.5,-1.3 75.1,-9.3 112.6,-4.5 37.5,4.9 74.9,22.5 93.5,31.4 l 18.7,8.8 v 48 h -18.7 c -18.6,0 -56,0 -93.5,0 -37.5,0 -75.1,0 -112.6,0 -37.5,0 -74.9,0 -112.4,0 -37.5,0 -75.1,0 -112.6,0 -37.5,0 -74.9,0 -112.4,0 -37.5,0 -75.1,0 -112.6,0 -37.5,0 -74.9,0 -112.4,0 -37.499998,0 -75.099998,0 -94,0 H 0.24593064 Z"
     fill="#3860d4"
     id="path4"
     style="fill:#4769ce;fill-opacity:1" /><path
     d="m 0.24593064,293.23983 18.79999936,-6.5 c 18.900002,-6.5 56.500002,-19.5 94,-16.8 37.5,2.6 74.9,21 112.4,21.8 37.5,0.8 75.1,-15.8 112.6,-19.5 37.5,-3.7 74.9,5.7 112.4,13.2 37.5,7.5 75.1,13.1 112.6,9.3 37.5,-3.8 74.9,-17.2 112.4,-26.2 37.5,-9 75.1,-13.6 112.6,-6.3 37.5,7.3 74.9,26.7 93.5,36.3 l 18.7,9.7 v 13 h -18.7 c -18.6,0 -56,0 -93.5,0 -37.5,0 -75.1,0 -112.6,0 -37.5,0 -74.9,0 -112.4,0 -37.5,0 -75.1,0 -112.6,0 -37.5,0 -74.9,0 -112.4,0 -37.5,0 -75.1,0 -112.6,0 -37.5,0 -74.9,0 -112.4,0 -37.499998,0 -75.099998,0 -94,0 H 0.24593064 Z"
     fill="#2450c7"
     id="path5"
     style="fill:#375fca;fill-opacity:1" /><path
     d="m 247.88625,157.21314 q -4.79021,0.30645 -13.98741,0.89483 -9.00559,0.57612 -12.34874,-0.55676 -3.34314,-1.13287 -3.52701,-4.00699 L 210.28834,32.639377 q -0.28193,-4.406991 11.24682,-7.645633 11.7081,-3.442507 25.12069,-4.300562 13.41258,-0.858054 19.38147,2.223157 5.96889,3.081212 7.17209,6.852089 l 16.26546,49.751054 1.72447,-0.110321 9.17394,-49.069801 q 1.01029,-5.259229 11.87842,-9.802355 11.04747,-4.746992 24.46005,-5.605047 13.41258,-0.858054 19.87049,0.845126 6.64952,1.690922 6.85791,4.948263 l 7.86958,123.012533 q 0.15936,2.49091 -10.66425,4.72247 -10.82361,2.23157 -26.53549,3.23672 -15.71189,1.00515 -16.06737,-4.55149 -0.96837,-15.13705 -0.18713,-54.050316 l -1.72448,0.110321 -6.76431,50.647175 q -0.39096,2.9109 -4.52053,4.52183 -3.93797,1.59868 -12.17713,2.12577 -8.23916,0.52709 -10.22879,-0.49998 -1.79802,-1.03933 -2.58123,-4.2599 l -13.54617,-49.347835 -1.72447,0.110321 q 5.97408,39.250674 6.89343,53.621294 0.3187,4.98181 -23.59556,7.08888 z"
     id="text1"
     style="font-size:192px;font-family:'Titan One';-inkscape-font-specification:'Titan One, Normal';white-space:pre;fill:#ff914b;fill-opacity:1"
     aria-label="M" /><path
     d="m 441.59947,144.4336 q 0.006,2.49599 -11.70216,4.06045 -11.51624,1.56399 -23.4202,1.59292 -11.71197,0.0285 -15.17122,-1.30714 -3.26726,-1.33606 -3.27426,-4.21605 L 387.74468,26.484129 q -0.0117,-4.799986 11.11497,-8.667037 11.12617,-4.05905 24.18213,-4.090778 18.23995,-0.04433 18.26094,8.595648 l 0.10265,42.239875 17.08795,-0.04153 -0.0928,-38.207887 q -0.0117,-4.799986 11.11497,-8.667037 11.31817,-4.059517 24.37413,-4.091245 18.04795,-0.04386 18.06894,8.596115 l 0.29676,122.111637 q 0.006,2.49599 -11.70217,4.06045 -11.70823,1.56446 -23.4202,1.59292 -11.71196,0.0285 -15.17122,-1.30713 -3.26726,-1.33607 -3.27426,-4.21606 l -0.10685,-43.96786 -17.08794,0.0415 z"
     id="text2"
     style="font-size:192px;font-family:'Titan One';-inkscape-font-specification:'Titan One, Normal';white-space:pre;fill:#ff914b;fill-opacity:1"
     aria-label="H" /><path
     d="m 628.15606,150.93175 q -6.18457,3.57364 -16.80397,5.31092 -10.40769,1.56725 -26.63121,-0.20469 -16.03266,-1.75109 -30.24655,-6.00751 -14.21389,-4.25643 -20.15804,-8.18907 -5.94416,-3.93263 -5.61062,-6.98646 1.16739,-10.68843 5.47201,-21.80679 4.32547,-11.30923 8.5245,-10.8506 0.76346,0.0834 15.27894,6.88359 14.51548,6.80022 22.15008,7.63407 7.63459,0.83385 10.09174,-0.44291 2.478,-1.46763 2.81154,-4.52147 0.33354,-3.05384 -3.61533,-5.80284 -3.92803,-2.93986 -10.03895,-5.34558 -6.09009,-2.596582 -13.15858,-6.845157 -6.87764,-4.227729 -12.71756,-9.114686 -5.83993,-4.886958 -9.20511,-12.980175 -3.34433,-8.284082 -2.26032,-18.209059 4.62788,-42.372021 55.2071,-36.847749 18.89563,2.063785 32.3669,6.045963 13.49212,3.791314 18.69367,7.449696 5.41325,3.488364 5.10055,6.351338 -1.084,9.924978 -7.10641,20.855718 -5.83153,10.951585 -10.22143,10.47212 -0.76346,-0.08338 -4.77487,-2.259788 -11.99254,-6.91094 -20.3906,-7.828178 -8.20719,-0.896391 -11.4278,0.296988 -3.02975,1.214225 -3.38414,4.458929 -0.33354,3.053839 3.63618,5.611972 3.99057,2.367269 9.91063,4.752135 6.13177,2.214848 13.00941,6.442577 7.08934,4.05771 12.88758,9.326398 5.81907,5.077822 9.12171,13.743638 3.30264,8.66582 2.1144,19.54512 -1.25078,11.4519 -8.18906,20.15803 -4.25182,5.32987 -10.43639,8.90351 z"
     id="text3"
     style="font-size:192px;font-family:'Titan One';-inkscape-font-specification:'Titan One, Normal';fill:#ff914b;fill-opacity:1"
     aria-label="S" /><path
     d="m 196.36586,288.51277 q -6.05123,3.79506 -16.60082,5.9154 -10.34418,1.94278 -26.62118,0.75897 -16.08552,-1.16988 -30.4441,-4.90927 -14.35858,-3.73938 -20.44112,-7.45438 -6.082552,-3.715 -5.859717,-6.7789 0.779922,-10.72368 4.679457,-21.9905 3.91347,-11.45831 8.12634,-11.15191 0.76598,0.0557 15.51799,6.3263 14.75201,6.27059 22.41177,6.82767 7.65977,0.55709 10.06912,-0.80774 2.42328,-1.55632 2.64611,-4.62023 0.22283,-3.0639 -3.82291,-5.66823 -4.03182,-2.79582 -10.22579,-4.97887 -6.18003,-2.37454 -13.39762,-6.36459 -7.02609,-3.97613 -13.039,-8.6486 -6.01291,-4.67247 -9.6687,-12.63864 -3.64186,-8.15766 -2.91764,-18.11536 3.09183,-42.51171 53.83779,-38.82101 18.95793,1.37879 32.56446,4.87097 13.62046,3.30069 18.95096,6.76848 5.53592,3.29023 5.32701,6.16264 -0.72421,9.9577 -6.3472,21.09918 -5.43149,11.1554 -9.83586,10.83507 -0.76598,-0.0557 -4.8535,-2.08555 -12.23473,-6.47253 -20.66048,-7.08532 -8.23425,-0.59887 -11.40958,0.71025 -2.98383,1.32304 -3.22059,4.57844 -0.22283,3.06391 3.83684,5.47675 4.0736,2.22134 10.07607,4.39045 6.20789,1.99155 13.23399,5.96768 7.23151,3.79856 13.21656,8.85402 5.99899,4.86396 9.61299,13.40461 3.61401,8.54065 2.82016,19.45582 -0.83563,11.48966 -7.45438,20.44113 -4.05621,5.48021 -10.10743,9.27527 z"
     id="text4"
     style="font-size:192px;font-family:'Titan One';-inkscape-font-specification:'Titan One, Normal';display:none;fill:#ff914b;fill-opacity:1"
     aria-label="S" /><path
     d="m 348.01446,298.02654 -80.9922,8.21742 q -9.35994,0.94966 -12.74294,-0.058 -3.38299,-1.00767 -3.6737,-3.87296 L 238.33763,181.39776 q -0.5039,-4.9665 3.67636,-7.51347 4.37127,-2.56635 16.02345,-3.74858 l 76.78978,-7.79104 q 4.0114,-0.40699 5.36805,12.96436 1.33727,13.18033 0.33518,20.42248 -1.02146,7.05112 -3.88675,7.34183 -12.41626,1.25974 -42.08519,1.76112 l 1.29851,12.7983 q 28.15458,-4.01446 36.75045,-4.88659 5.15752,-0.52328 6.3785,11.51093 1.22099,12.03422 -0.24066,18.55105 -1.29001,6.30643 -4.72836,6.65528 l -34.65202,2.74383 1.24036,12.22524 q 32.98542,-5.8555 45.59269,-7.13463 4.01141,-0.40699 5.36806,12.96436 1.35665,13.37136 0.33518,20.42248 -1.02147,7.05112 -3.88676,7.34183 z"
     id="text5"
     style="font-size:192px;font-family:'Titan One';-inkscape-font-specification:'Titan One, Normal';fill:#f1f3f7;fill-opacity:1"
     aria-label="E" /><path
     d="m 437.66998,287.13584 q -0.69175,5.53819 -6.36816,7.33861 -5.48471,1.81105 -19.67091,1.02426 -14.18619,-0.78679 -23.63324,-3.81058 -9.24471,-3.20486 -9.02143,-7.23068 0.25517,-4.60092 20.31528,-57.71556 20.07073,-53.30635 23.02009,-61.41146 1.09675,-2.439 15.55971,-3.17522 14.6653,-0.91729 31.15196,-0.003 16.67837,0.92502 18.08475,6.77187 29.5552,122.40049 29.44888,124.31755 -0.10633,1.91705 -2.51312,3.70652 -5.60166,3.91981 -21.51321,3.03732 -33.93185,-1.88192 -34.25211,-9.97608 l -0.65084,-12.53527 -18.40371,-1.02071 z m 17.95199,-46.30894 -0.96176,-34.66645 -4.21752,-0.23391 -5.17281,34.32622 z"
     id="text6"
     style="font-size:192px;font-family:'Titan One';-inkscape-font-specification:'Titan One, Normal';fill:#f1f3f7;fill-opacity:1"
     aria-label="A" /><path
     d="m 574.1173,299.67173 q -9.53053,1.15283 -12.88619,0.59173 -3.37872,-0.7517 -3.67846,-3.22964 L 543.21152,178.47403 q -0.50724,-4.19343 10.06399,-9.53353 10.54817,-5.53071 24.27213,-7.19078 12.19908,-1.47561 16.63382,3.20975 1.56484,1.74471 1.7954,3.65081 l 10.21402,84.4405 q 23.07004,-4.33778 34.8879,-5.76728 4.00282,-0.48419 5.54761,12.28672 1.52172,12.5803 0.91294,21.93712 -0.60878,9.35682 -3.46794,9.70266 z"
     id="text7"
     style="font-size:192px;font-family:'Titan One';-inkscape-font-specification:'Titan One, Normal';fill:#f1f3f7;fill-opacity:1"
     aria-label="L" /><path
     d="m 774.20481,279.1125 q -6.08517,3.7404 -16.65343,5.76563 -10.36126,1.84952 -26.62694,0.51914 -16.07433,-1.31472 -30.39864,-5.18329 -14.32431,-3.86857 -20.37315,-7.63821 -6.04884,-3.76964 -5.79841,-6.83142 0.87648,-10.71621 4.87735,-21.94745 4.01652,-11.42259 8.22646,-11.07826 0.76544,0.0626 15.46037,6.46582 14.69493,6.40322 22.34937,7.02928 7.65444,0.62606 10.07598,-0.717 2.4372,-1.53444 2.68762,-4.59621 0.25043,-3.06178 -3.7717,-5.70244 -4.00647,-2.83203 -10.18052,-5.07078 -6.15839,-2.43011 -13.33975,-6.48502 -6.98999,-4.03925 -12.96057,-8.76569 -5.97057,-4.72645 -9.55446,-12.72522 -3.56822,-8.19013 -2.75435,-18.14091 3.47464,-42.48214 54.18531,-38.33448 18.94474,1.5495 32.51926,5.1641 13.59017,3.42324 18.88922,6.93891 5.50605,3.33996 5.27128,6.21038 -0.81388,9.95077 -6.537,21.04114 -5.53175,11.10603 -9.93306,10.74604 -0.76544,-0.0626 -4.83452,-2.12919 -12.17593,-6.58247 -20.59581,-7.27113 -8.22853,-0.67302 -11.41551,0.60744 -2.99563,1.29612 -3.26171,4.54926 -0.25042,3.06177 3.78735,5.51108 4.05343,2.25794 10.03612,4.48104 6.1897,2.04739 13.17969,6.08664 7.197,3.86355 13.13628,8.97271 5.95493,4.91781 9.49185,13.49066 3.53693,8.57286 2.64479,19.48043 -0.93909,11.48166 -7.63821,20.37316 -4.1054,5.44345 -10.19056,9.18384 z"
     id="text8"
     style="font-size:192px;font-family:'Titan One';-inkscape-font-specification:'Titan One, Normal';fill:#f1f3f7;fill-opacity:1"
     aria-label="S" /><g
     id="g1"
     transform="matrix(0.44778224,-0.14145196,0.14145196,0.44778224,48.799061,179.20199)"><path
       style="fill:#dededf"
       d="m 287.96891,208.42578 c 5.11213,-23.89887 21.47292,-43.52372 36.13494,-63.02949 1.65475,-2.2587 3.42771,-4.67876 3.91557,-7.54441 0.42879,-2.78498 -0.8093,-6.1713 -3.51922,-7.04094 -1.36575,-0.50472 -2.9032,-0.26744 -4.27929,0.088 -8.79408,2.35886 -15.12884,9.99042 -23.42769,13.70377 -9.03521,4.04166 -19.44914,2.85846 -29.28244,1.72873 -5.68817,-0.69621 -15.7934,-0.73877 -21.48157,-1.43498 l 17.37132,52.2243 z"
       id="path1-3"
       sodipodi:nodetypes="cccccccccc" /><path
       style="fill:#f1f3f7"
       d="m 275.95942,45.612388 -9.47243,-19.096366 c -67.27212,-6.063315 -90.76235,5.117827 -90.76235,5.117827 -59.01968,19.134768 -63.48971,49.81369 -63.07359,70.855041 1.02256,51.70653 60.62215,72.88161 60.38495,129.06406 -0.24284,57.51403 -92.295936,2.20002 -92.295936,2.20002 -11.82803,-70.15167 -70.87903,-60.10835 -70.87903,-60.10835 0,0 15.61723,-0.33528 20.08006,35.53689 4.46287,35.87218 19.01072,36.48897 19.01072,36.48897 0,0 -17.68677,11.72255 -23.57852,27.95047 C 20.033154,288.32959 0,305.81655 0,305.81655 c 53.579554,15.69971 78.005874,-21.62971 78.005874,-21.62971 68.587146,67.97458 146.707636,47.97662 185.062516,-4.37711 0.0647,0.41929 0.21022,0.89768 0.27476,1.31702 0.91629,5.01003 1.84378,11.01999 6.40907,13.2489 5.04933,2.58349 11.04721,-1.20405 14.89981,-5.44755 12.60568,-13.82232 17.51033,-33.03859 19.00149,-51.6565 0.5668,-6.52676 0.67115,-13.26837 -1.15967,-19.56822 -2.68151,-9.03046 -8.85632,-15.66159 -16.10612,-21.84062 -15.42141,-42.87893 -19.86079,-40.09568 -40.47797,-60.1331 -14.20409,-14.49282 -44.21984,-29.53663 -38.85321,-52.713308 4.87048,-14.491313 74.74733,-23.261849 77.32457,-30.655104 z"
       id="path2-6"
       sodipodi:nodetypes="cccssccscsccccccccccccc" /><path
       style="fill:#646b79"
       d="m 284.18151,52.931885 c 5.82889,-6.728182 7.5195,-12.816882 7.5195,-12.816882 -7.13148,-11.786942 -23.95266,-14.008541 -26.64744,-13.813156 l 6.53321,21.012306 z"
       id="path3-7"
       sodipodi:nodetypes="ccccc" /><path
       style="fill:#dededf"
       d="m 216.64561,221.007 c 0,0 0.10226,0.19885 0.30672,0.59659 0.20449,0.39773 0.59186,1.05342 1.119,1.68755 1.01677,1.48867 2.73799,3.36947 5.28184,5.48105 2.54385,2.1116 6.00699,4.15287 9.95413,6.54873 1.97356,1.19792 4.18914,2.57315 6.28651,4.1097 2.17805,1.59566 4.31857,3.41174 6.42155,5.44827 4.26507,3.99238 8.32093,8.9472 11.7267,14.78933 3.40578,5.84216 6.22057,12.49098 7.76151,19.69415 0.84026,3.59081 1.23983,7.10653 2.73026,9.80998 1.40977,2.64434 3.74355,3.85822 6.5764,3.2064 2.83286,-0.65185 5.72957,-2.74448 8.06158,-5.2508 2.50933,-2.74834 4.57776,-5.57174 6.5224,-8.73375 3.83017,-6.24337 6.55257,-13.17438 8.47388,-20.19637 0.96063,-3.51102 1.70084,-7.05954 2.36044,-10.66716 0.60046,-3.52696 1.03958,-7.17213 1.44117,-10.59684 0.64185,-6.96765 0.8053,-13.78992 -1.01989,-19.58979 -0.26925,-0.81702 -0.51681,-1.49429 -0.78601,-2.31133 -0.32828,-0.73636 -0.63501,-1.33296 -0.88261,-2.01022 l -0.51118,-0.99433 -0.5112,-0.99432 c -0.38739,-0.65569 -0.77477,-1.31139 -1.08149,-1.90798 -1.66772,-2.46144 -3.31388,-4.78311 -5.2771,-6.84121 -3.78667,-4.13776 -7.74504,-7.53356 -11.27848,-10.49409 -3.53344,-2.96054 -6.66355,-5.62559 -9.0892,-7.8985 -2.42567,-2.27292 -4.28665,-4.13216 -5.56138,-5.43794 -1.21564,-1.38643 -1.82345,-2.07966 -1.82345,-2.07966 0,0 0.6669,0.61256 2.00074,1.83767 1.33382,1.22511 3.37211,2.84233 5.97507,4.87324 2.60295,2.03092 5.96944,4.3733 9.6802,7.09182 3.7914,2.77762 8.06682,5.90984 12.2137,10.06356 2.10298,2.03654 4.10935,4.37416 6.07818,6.93224 0.46804,0.71478 0.85542,1.37048 1.32348,2.08528 l 0.67252,1.11252 0.53277,1.13408 c 0.40895,0.79547 0.8179,1.59092 1.14619,2.3273 0.32828,0.73634 0.59747,1.55338 0.84509,2.23065 2.4546,6.63287 2.45809,14.0733 1.91848,21.23981 -0.59872,7.24717 -1.45538,14.67725 -3.37109,22.19922 -1.93727,7.38221 -4.71316,14.89384 -8.81725,21.68032 -2.06283,3.32335 -4.54497,6.71143 -7.19405,9.48133 -1.48308,1.51674 -2.98772,2.89372 -4.73436,4.09339 -1.74666,1.19968 -3.7353,2.22206 -6.03066,2.64785 -1.17723,0.25323 -2.31694,0.28602 -3.61799,0.20061 l -0.88172,-0.15015 -1.04308,-0.2683 c -0.82265,-0.23078 -0.76353,-0.31146 -1.60776,-0.682 -1.08622,-0.54785 -2.0758,-1.39679 -2.84496,-2.20822 -0.84982,-0.87051 -1.36101,-1.86485 -1.9313,-2.7785 -1.9641,-3.91819 -2.20785,-7.81571 -2.94601,-11.20765 -1.25577,-6.74632 -3.66723,-13.09965 -6.61056,-18.72698 -3.00244,-5.54665 -6.55834,-10.50706 -10.40411,-14.56415 -1.96321,-2.05812 -3.8833,-3.83667 -5.78181,-5.47546 -1.97917,-1.69789 -3.91522,-3.11627 -5.77059,-4.47553 -3.76984,-2.63787 -7.15791,-5.12 -9.52447,-7.47358 -2.50632,-2.33203 -3.99114,-4.5355 -4.86815,-6.04576 -0.40896,-0.79545 -0.71567,-1.39205 -0.92014,-1.78978 -0.50558,-0.49437 -0.68849,-0.75231 -0.68849,-0.75231 z"
       id="path4-5" /><ellipse
       style="fill:#646b79"
       cx="108.01096"
       cy="208.74828"
       rx="9.3000002"
       ry="8.6000004"
       id="ellipse7"
       transform="rotate(-53.773107)" /><path
       style="fill:#dededf"
       d="m 187.02304,220.60665 c 0,0 -8.67939,28.10569 4.14126,37.00237 0,0 -12.63599,-4.91851 -15.16565,-11.1105 0,0 -11.40162,24.86951 5.8321,43.81731 0,0 -24.42485,-21.9054 -16.73257,-35.11256 0,0 17.84241,-13.85984 3.39829,-51.84948 -0.0806,-0.059 17.13626,21.68875 18.52657,17.25286 z"
       id="path8"
       sodipodi:nodetypes="ccccccc" /></g></svg>
