<?xml version="1.0" encoding="UTF-8" standalone="no"?>
<svg
   id="visual"
   viewBox="0 0 500 224"
   width="500"
   height="224"
   version="1.1"
   sodipodi:docname="waves_flipped_mobile.svg"
   inkscape:version="1.2.2 (732a01da63, 2022-12-09)"
   xml:space="preserve"
   xmlns:inkscape="http://www.inkscape.org/namespaces/inkscape"
   xmlns:sodipodi="http://sodipodi.sourceforge.net/DTD/sodipodi-0.dtd"
   xmlns="http://www.w3.org/2000/svg"
   xmlns:svg="http://www.w3.org/2000/svg"><defs
     id="defs5"><rect
       x="114.31041"
       y="129.86035"
       width="202.58475"
       height="270.13965"
       id="rect1" /><rect
       x="114.31041"
       y="129.86035"
       width="202.58475"
       height="270.13965"
       id="rect2" /></defs><sodipodi:namedview
     id="namedview5"
     pagecolor="#ffffff"
     bordercolor="#000000"
     borderopacity="0.25"
     inkscape:showpageshadow="2"
     inkscape:pageopacity="0.0"
     inkscape:pagecheckerboard="0"
     inkscape:deskcolor="#d1d1d1"
     inkscape:zoom="1.0983673"
     inkscape:cx="392.40061"
     inkscape:cy="30.955037"
     inkscape:window-width="1920"
     inkscape:window-height="1009"
     inkscape:window-x="-8"
     inkscape:window-y="-8"
     inkscape:window-maximized="1"
     inkscape:current-layer="visual"
     showguides="true"
     showgrid="false"><sodipodi:guide
       position="0,224"
       orientation="0,900"
       id="guide20"
       inkscape:locked="false" /><sodipodi:guide
       position="900,224"
       orientation="320,0"
       id="guide21"
       inkscape:locked="false" /><sodipodi:guide
       position="900,-96"
       orientation="0,-900"
       id="guide22"
       inkscape:locked="false" /><sodipodi:guide
       position="0,-96"
       orientation="-320,0"
       id="guide23"
       inkscape:locked="false" /><sodipodi:guide
       position="450,224"
       orientation="-1,0"
       id="guide24"
       inkscape:locked="false"
       inkscape:label=""
       inkscape:color="rgb(0,134,229)" /><sodipodi:guide
       position="0.24593064,64"
       orientation="0,1"
       id="guide25"
       inkscape:locked="false"
       inkscape:label=""
       inkscape:color="rgb(0,134,229)" /></sodipodi:namedview><path
     d="M 725.19999,219 706.4,212.5 c -18.90001,-6.5 -56.50001,-19.5 -94,-25.7 -37.50001,-6.09999 -74.90001,-5.49999 -112.40001,-6.59999 -37.5,-1.2 -75.1,-4.2 -112.6,3.6 C 349.9,191.7 312.5,210.3 275,213.8 c -37.5,3.5 -75.1,-8.1 -112.6,-7.8 -37.5,0.3 -74.9,12.7 -112.4,11.5 -37.5,-1.2 -75.1,-15.8 -112.6,-24 -37.5,-8.2 -74.9,-9.79999 -93.5,-10.69999 l -18.7,-0.8 V 0 h 18.7 c 18.6,0 56,0 93.5,0 37.5,0 75.1,0 112.6,0 37.5,0 74.9,0 112.4,0 37.5,0 75.1,0 112.6,0 37.5,0 74.9,0 112.4,0 37.5,0 75.1,0 112.6,0 37.5,0 74.9,0 112.4,0 37.49999,0 75.09999,0 94,0 h 18.79999 z"
     fill="#6990fa"
     id="path1"
     style="fill:#91adfa;fill-opacity:1" /><path
     d="m 725.2,158.00001 -18.8,4.2 c -18.9,4.1 -56.5,12.5 -94,9.8 -37.5,-2.7 -74.9,-16.3 -112.4,-26.8 -37.5,-10.5 -75.1,-17.9 -112.6,-13.4 -37.5,4.5 -74.9,20.9 -112.4,31 -37.5,10.2 -75.1,14.2 -112.6,5.2 -37.5,-9 -74.9,-31 -112.4,-38.8 -37.5,-7.9 -75.1,-1.5 -112.6,2.6 -37.5,4.2 -74.9,6.2 -93.5,7.2 l -18.7,1 V 0 h 18.7 c 18.6,0 56,0 93.5,0 37.5,0 75.1,0 112.6,0 37.5,0 74.9,0 112.4,0 37.5,0 75.1,0 112.6,0 37.5,0 74.9,0 112.4,0 37.5,0 75.1,0 112.6,0 37.5,0 74.9,0 112.4,0 37.5,0 75.1,0 94,0 h 18.8 z"
     fill="#5980ee"
     id="path2"
     style="fill:#7495f1;fill-opacity:1" /><path
     d="m 725.2,129.00001 -18.8,-0.5 c -18.9,-0.5 -56.5,-1.5 -94,0.5 -37.5,2 -74.9,7 -112.4,1 -37.5,-6 -75.1,-23 -112.6,-23.8 -37.5,-0.9 -74.9,14.5 -112.4,15.1 -37.5,0.7 -75.1,-13.3 -112.6,-15.5 -37.5,-2.1 -74.9,7.5 -112.4,17 -37.5,9.5 -75.1,18.9 -112.6,22.4 -37.5,3.5 -74.9,1.1 -93.5,0 l -18.7,-1.2 V 0 h 18.7 c 18.6,0 56,0 93.5,0 37.5,0 75.1,0 112.6,0 37.5,0 74.9,0 112.4,0 37.5,0 75.1,0 112.6,0 37.5,0 74.9,0 112.4,0 37.5,0 75.1,0 112.6,0 37.5,0 74.9,0 112.4,0 37.5,0 75.1,0 94,0 h 18.8 z"
     fill="#4970e1"
     id="path3"
     style="fill:#557ae3;fill-opacity:1" /><path
     d="m 725.2,108 -18.8,-4.2 c -18.9,-4.1 -56.5,-12.5 -94,-16 -37.5,-3.5 -74.9,-2.1 -112.4,-0.1 -37.5,2 -75.1,4.6 -112.6,2.5 C 349.9,88 312.5,81 275,80.7 237.5,80.3 199.9,86.7 162.4,87.2 124.9,87.7 87.5,82.3 50,83.7 12.5,85 -25.1,93 -62.6,88.2 -100.1,83.3 -137.5,65.7 -156.1,56.8 L -174.8,48 V 0 h 18.7 c 18.6,0 56,0 93.5,0 37.5,0 75.1,0 112.6,0 37.5,0 74.9,0 112.4,0 37.5,0 75.1,0 112.6,0 37.5,0 74.9,0 112.4,0 37.5,0 75.1,0 112.6,0 37.5,0 74.9,0 112.4,0 37.5,0 75.1,0 94,0 h 18.8 z"
     fill="#3860d4"
     id="path4"
     style="fill:#4769ce;fill-opacity:1" /><path
     d="m 725.20001,28 -18.8,6.5 C 687.5,41 649.9,54 612.4,51.3 574.9,48.7 537.5,30.3 500,29.5 462.50001,28.7 424.90001,45.3 387.40001,49 c -37.5,3.7 -74.9,-5.7 -112.4,-13.2 -37.5,-7.5 -75.1,-13.1 -112.6,-9.3 -37.5,3.8 -74.9,17.2 -112.4,26.2 -37.5,9 -75.1,13.6 -112.6,6.3 C -100.1,51.7 -137.5,32.3 -156.1,22.7 L -174.8,13 V 0 h 18.7 c 18.6,0 56,0 93.50001,0 37.5,0 75.1,0 112.6,0 37.5,0 74.9,0 112.4,0 37.5,0 75.1,0 112.6,0 37.5,0 74.9,0 112.4,0 37.5,0 75.1,0 112.59999,0 37.5,0 74.9,0 112.4,0 37.5,0 75.1,0 94.00001,0 h 18.8 z"
     fill="#2450c7"
     id="path5"
     style="fill:#375fca;fill-opacity:1" /><path
     d="m 196.36586,288.51277 q -6.05123,3.79506 -16.60082,5.9154 -10.34418,1.94278 -26.62118,0.75897 -16.08552,-1.16988 -30.4441,-4.90927 -14.35858,-3.73938 -20.44112,-7.45438 -6.082552,-3.715 -5.859717,-6.7789 0.779922,-10.72368 4.679457,-21.9905 3.91347,-11.45831 8.12634,-11.15191 0.76598,0.0557 15.51799,6.3263 14.75201,6.27059 22.41177,6.82767 7.65977,0.55709 10.06912,-0.80774 2.42328,-1.55632 2.64611,-4.62023 0.22283,-3.0639 -3.82291,-5.66823 -4.03182,-2.79582 -10.22579,-4.97887 -6.18003,-2.37454 -13.39762,-6.36459 -7.02609,-3.97613 -13.039,-8.6486 -6.01291,-4.67247 -9.6687,-12.63864 -3.64186,-8.15766 -2.91764,-18.11536 3.09183,-42.51171 53.83779,-38.82101 18.95793,1.37879 32.56446,4.87097 13.62046,3.30069 18.95096,6.76848 5.53592,3.29023 5.32701,6.16264 -0.72421,9.9577 -6.3472,21.09918 -5.43149,11.1554 -9.83586,10.83507 -0.76598,-0.0557 -4.8535,-2.08555 -12.23473,-6.47253 -20.66048,-7.08532 -8.23425,-0.59887 -11.40958,0.71025 -2.98383,1.32304 -3.22059,4.57844 -0.22283,3.06391 3.83684,5.47675 4.0736,2.22134 10.07607,4.39045 6.20789,1.99155 13.23399,5.96768 7.23151,3.79856 13.21656,8.85402 5.99899,4.86396 9.61299,13.40461 3.61401,8.54065 2.82016,19.45582 -0.83563,11.48966 -7.45438,20.44113 -4.05621,5.48021 -10.10743,9.27527 z"
     id="text4"
     style="font-size:192px;font-family:'Titan One';-inkscape-font-specification:'Titan One, Normal';display:none;fill:#ff914b;fill-opacity:1"
     aria-label="S" /></svg>
