<?xml version="1.0" encoding="UTF-8" standalone="no"?>
<svg
   id="visual"
   viewBox="0 0 900 224"
   width="900"
   height="224"
   version="1.1"
   sodipodi:docname="waves.svg"
   inkscape:version="1.2.2 (732a01da63, 2022-12-09)"
   xml:space="preserve"
   xmlns:inkscape="http://www.inkscape.org/namespaces/inkscape"
   xmlns:sodipodi="http://sodipodi.sourceforge.net/DTD/sodipodi-0.dtd"
   xmlns="http://www.w3.org/2000/svg"
   xmlns:svg="http://www.w3.org/2000/svg"><defs
     id="defs5"><rect
       x="114.31041"
       y="129.86035"
       width="202.58475"
       height="270.13965"
       id="rect1" /><rect
       x="114.31041"
       y="129.86035"
       width="202.58475"
       height="270.13965"
       id="rect2" /></defs><sodipodi:namedview
     id="namedview5"
     pagecolor="#ffffff"
     bordercolor="#000000"
     borderopacity="0.25"
     inkscape:showpageshadow="2"
     inkscape:pageopacity="0.0"
     inkscape:pagecheckerboard="0"
     inkscape:deskcolor="#d1d1d1"
     inkscape:zoom="9.700026"
     inkscape:cx="266.08176"
     inkscape:cy="125.2574"
     inkscape:window-width="1920"
     inkscape:window-height="1009"
     inkscape:window-x="-8"
     inkscape:window-y="-8"
     inkscape:window-maximized="1"
     inkscape:current-layer="visual"
     showguides="true"
     showgrid="false"><sodipodi:guide
       position="0,224"
       orientation="0,900"
       id="guide20"
       inkscape:locked="false" /><sodipodi:guide
       position="900,224"
       orientation="320,0"
       id="guide21"
       inkscape:locked="false" /><sodipodi:guide
       position="900,-96"
       orientation="0,-900"
       id="guide22"
       inkscape:locked="false" /><sodipodi:guide
       position="0,-96"
       orientation="-320,0"
       id="guide23"
       inkscape:locked="false" /><sodipodi:guide
       position="450,224"
       orientation="-1,0"
       id="guide24"
       inkscape:locked="false"
       inkscape:label=""
       inkscape:color="rgb(0,134,229)" /><sodipodi:guide
       position="0.24593064,64"
       orientation="0,1"
       id="guide25"
       inkscape:locked="false"
       inkscape:label=""
       inkscape:color="rgb(0,134,229)" /></sodipodi:namedview><path
     d="m 0,3.6143234 18.799999,6.5000006 c 18.900002,6.5 56.500002,19.5 94.000001,25.7 37.5,6.09999 74.9,5.49999 112.4,6.59999 37.5,1.2 75.1,4.2 112.6,-3.6 37.5,-7.89999 74.9,-26.49999 112.4,-29.9999906 37.5,-3.5 75.1,8.1000006 112.6,7.8000006 37.5,-0.3 74.9,-12.7000006 112.4,-11.5000006 37.5,1.2 75.1,15.8000006 112.6,24.0000006 37.5,8.2 74.9,9.79999 93.5,10.69999 l 18.7,0.8 V 222.61431 h -18.7 c -18.6,0 -56,0 -93.5,0 -37.5,0 -75.1,0 -112.6,0 -37.5,0 -74.9,0 -112.4,0 -37.5,0 -75.1,0 -112.6,0 -37.5,0 -74.9,0 -112.4,0 -37.5,0 -75.1,0 -112.6,0 -37.5,0 -74.9,0 -112.4,0 -37.499999,0 -75.099999,0 -94.000001,0 H 0 Z"
     fill="#6990fa"
     id="path1"
     style="fill:#91adfa;fill-opacity:1" /><path
     d="m 0,64.614314 18.799999,-4.2 c 18.900002,-4.1 56.500002,-12.5 94.000001,-9.8 37.5,2.7 74.9,16.3 112.4,26.8 37.5,10.5 75.1,17.9 112.6,13.4 37.5,-4.5 74.9,-20.9 112.4,-31 37.5,-10.2 75.1,-14.2 112.6,-5.2 37.5,9 74.9,31 112.4,38.8 37.5,7.899996 75.1,1.5 112.6,-2.6 37.5,-4.2 74.9,-6.2 93.5,-7.2 l 18.7,-1 V 222.61431 h -18.7 c -18.6,0 -56,0 -93.5,0 -37.5,0 -75.1,0 -112.6,0 -37.5,0 -74.9,0 -112.4,0 -37.5,0 -75.1,0 -112.6,0 -37.5,0 -74.9,0 -112.4,0 -37.5,0 -75.1,0 -112.6,0 -37.5,0 -74.9,0 -112.4,0 -37.499999,0 -75.099999,0 -94.000001,0 H 0 Z"
     fill="#5980ee"
     id="path2"
     style="fill:#7495f1;fill-opacity:1" /><path
     d="m 0,93.614314 18.799999,0.5 c 18.900002,0.5 56.500002,1.5 94.000001,-0.5 37.5,-2 74.9,-7 112.4,-1 37.5,6 75.1,22.999996 112.6,23.799996 37.5,0.9 74.9,-14.5 112.4,-15.1 37.5,-0.7 75.1,13.3 112.6,15.5 37.5,2.1 74.9,-7.5 112.4,-16.999996 37.5,-9.5 75.1,-18.9 112.6,-22.4 37.5,-3.5 74.9,-1.1 93.5,0 l 18.7,1.2 V 222.61431 h -18.7 c -18.6,0 -56,0 -93.5,0 -37.5,0 -75.1,0 -112.6,0 -37.5,0 -74.9,0 -112.4,0 -37.5,0 -75.1,0 -112.6,0 -37.5,0 -74.9,0 -112.4,0 -37.5,0 -75.1,0 -112.6,0 -37.5,0 -74.9,0 -112.4,0 -37.499999,0 -75.099999,0 -94.000001,0 H 0 Z"
     fill="#4970e1"
     id="path3"
     style="fill:#557ae3;fill-opacity:1" /><path
     d="m 0,114.61431 18.799999,4.2 c 18.900002,4.1 56.500002,12.5 94.000001,16 37.5,3.5 74.9,2.1 112.4,0.1 37.5,-2 75.1,-4.6 112.6,-2.5 37.5,2.2 74.9,9.2 112.4,9.5 37.5,0.4 75.1,-6 112.6,-6.5 37.5,-0.5 74.9,4.9 112.4,3.5 37.5,-1.3 75.1,-9.3 112.6,-4.5 37.5,4.9 74.9,22.5 93.5,31.4 l 18.7,8.8 v 48 h -18.7 c -18.6,0 -56,0 -93.5,0 -37.5,0 -75.1,0 -112.6,0 -37.5,0 -74.9,0 -112.4,0 -37.5,0 -75.1,0 -112.6,0 -37.5,0 -74.9,0 -112.4,0 -37.5,0 -75.1,0 -112.6,0 -37.5,0 -74.9,0 -112.4,0 -37.499999,0 -75.099999,0 -94.000001,0 H 0 Z"
     fill="#3860d4"
     id="path4"
     style="fill:#4769ce;fill-opacity:1" /><path
     d="M 0,195.38034 18.799999,188.7365 C 37.700001,182.09265 75.300001,168.80495 112.8,171.5647 c 37.5,2.65754 74.9,21.46474 112.4,22.28245 37.5,0.8177 75.1,-16.14966 112.6,-19.93155 37.5,-3.78188 74.9,5.82615 112.4,13.49213 37.5,7.66598 75.1,13.38991 112.6,9.50581 37.5,-3.8841 74.9,-17.58065 112.4,-26.77982 37.5,-9.19918 75.1,-13.90098 112.6,-6.43942 37.5,7.46155 74.9,27.29088 93.5,37.10334 L 900,210.7123 V 224 h -18.7 c -18.6,0 -56,0 -93.5,0 -37.5,0 -75.1,0 -112.6,0 -37.5,0 -74.9,0 -112.4,0 -37.5,0 -75.1,0 -112.6,0 -37.5,0 -74.9,0 -112.4,0 -37.5,0 -75.1,0 -112.6,0 -37.5,0 -74.9,0 -112.4,0 -37.499999,0 -75.099999,0 -94.000001,0 H 0 Z"
     fill="#2450c7"
     id="path5"
     style="fill:#375fca;fill-opacity:1;stroke-width:1.011" /><path
     d="m 325.00708,96.509324 q -3.09753,0.19816 -9.04477,0.57863 -5.82333,0.37254 -7.98514,-0.36003 -2.16179,-0.73255 -2.28069,-2.59106 l -5.00157,-78.18142 q -0.1823,-2.84972 7.2726,-4.94395 7.57088,-2.2260506 16.24395,-2.7808906 8.67305,-0.55485 12.53275,1.43757 3.8597,1.9924206 4.63773,4.4308106 l 10.51784,32.17082 1.1151,-0.0713 5.9322,-31.7303 q 0.65329,-3.40081 7.68101,-6.3385506 7.1437,-3.06958 15.81675,-3.62443 8.67306,-0.55485 12.84898,0.54649 4.29982,1.09341 4.43457,3.19972 l 5.08875,79.5443406 q 0.10305,1.61071 -6.89588,3.05372 -6.99894,1.44301 -17.15881,2.09298 -10.15987,0.64996 -10.38974,-2.94316 -0.62618,-9.78816 -0.121,-34.95088 l -1.11511,0.0713 -4.37405,32.75028 q -0.25281,1.8823 -2.92314,2.92398 -2.54643,1.03377 -7.87417,1.3746 -5.32774,0.34084 -6.6143,-0.3233 -1.16267,-0.67207 -1.66912,-2.75461 l -8.75944,-31.91009 -1.1151,0.0713 q 3.86305,25.3809 4.45754,34.67346 0.20608,3.22142 -15.25774,4.58393 z"
     id="text1"
     style="font-size:192px;font-family:'Titan One';-inkscape-font-specification:'Titan One, Normal';white-space:pre;fill:#ff914b;fill-opacity:1;stroke-width:0.646636"
     aria-label="M" /><path
     d="m 450.26902,88.245614 q 0.004,1.61399 -7.56704,2.62563 -7.44681,1.01133 -15.14434,1.03004 -7.57338,0.0184 -9.81026,-0.84525 -2.11273,-0.86394 -2.11725,-2.72624 l -0.18556,-76.35456 q -0.008,-3.1038406 7.18734,-5.6044206 7.19459,-2.62473 15.63704,-2.64524 11.79461,-0.0287 11.80818,5.55825 l 0.0664,27.3138306 11.04968,-0.0269 -0.06,-24.70659 q -0.008,-3.1038506 7.18734,-5.6044206 7.31874,-2.62503 15.76119,-2.64555 11.67046,-0.0284 11.68403,5.55856 l 0.1919,78.9617806 q 0.004,1.614 -7.56705,2.62564 -7.57096,1.01163 -15.14434,1.03003 -7.57338,0.0184 -9.81026,-0.84523 -2.11273,-0.86395 -2.11725,-2.72626 l -0.0691,-28.4312 -11.04967,0.0268 z"
     id="text2"
     style="font-size:192px;font-family:'Titan One';-inkscape-font-specification:'Titan One, Normal';white-space:pre;fill:#ff914b;fill-opacity:1;stroke-width:0.646636"
     aria-label="H" /><path
     d="m 570.90323,92.447544 q -3.99917,2.31085 -10.86605,3.43424 -6.72999,1.01344 -17.2207,-0.13236 -10.3673,-1.13232 -19.55851,-3.88468 -9.19121,-2.75236 -13.03491,-5.29534 -3.84371,-2.54298 -3.62803,-4.5177 0.75487,-6.91152 3.5384,-14.10106 2.797,-7.31295 5.51224,-7.01638 0.49368,0.0539 9.87992,4.45117 9.38623,4.39727 14.32304,4.93647 4.9368,0.53919 6.52568,-0.2864 1.60236,-0.94903 1.81804,-2.92375 0.21568,-1.97472 -2.3378,-3.75233 -2.54001,-1.90101 -6.49155,-3.45664 -3.93807,-1.67904 -8.50881,-4.42632 -4.44733,-2.73381 -8.22363,-5.89389 -3.77631,-3.16008 -5.95236,-8.39345 -2.16256,-5.35678 -1.4616,-11.77463 2.99255,-27.3992806 35.6989,-23.8270806 12.21859,1.33452 20.9296,3.90954 8.72449,2.4516006 12.088,4.8172406 3.5004,2.2557 3.2982,4.107 -0.70095,6.41785 -4.59526,13.48606 -3.77088,7.08169 -6.60955,6.77165 -0.49368,-0.0539 -3.0876,-1.46126 -7.75481,-4.46886 -13.18529,-5.06198 -5.30707,-0.57964 -7.38963,0.19204 -1.95915,0.78516 -2.18831,2.8833 -0.21568,1.97473 2.35129,3.62891 2.58044,1.53076 6.40857,3.0729 3.96502,1.4322 8.41235,4.166 4.58422,2.62386 8.33357,6.03079 3.76282,3.2835 5.89843,8.88713 2.13561,5.60363 1.36725,12.63858 -0.8088,7.40521 -5.29534,13.0349 -2.74938,3.44649 -6.74855,5.75733 z"
     id="text3"
     style="font-size:192px;font-family:'Titan One';-inkscape-font-specification:'Titan One, Normal';fill:#ff914b;fill-opacity:1;stroke-width:0.646636"
     aria-label="S" /><path
     d="m 196.36586,288.51277 q -6.05123,3.79506 -16.60082,5.9154 -10.34418,1.94278 -26.62118,0.75897 -16.08552,-1.16988 -30.4441,-4.90927 -14.35858,-3.73938 -20.44112,-7.45438 -6.082552,-3.715 -5.859717,-6.7789 0.779922,-10.72368 4.679457,-21.9905 3.91347,-11.45831 8.12634,-11.15191 0.76598,0.0557 15.51799,6.3263 14.75201,6.27059 22.41177,6.82767 7.65977,0.55709 10.06912,-0.80774 2.42328,-1.55632 2.64611,-4.62023 0.22283,-3.0639 -3.82291,-5.66823 -4.03182,-2.79582 -10.22579,-4.97887 -6.18003,-2.37454 -13.39762,-6.36459 -7.02609,-3.97613 -13.039,-8.6486 -6.01291,-4.67247 -9.6687,-12.63864 -3.64186,-8.15766 -2.91764,-18.11536 3.09183,-42.51171 53.83779,-38.82101 18.95793,1.37879 32.56446,4.87097 13.62046,3.30069 18.95096,6.76848 5.53592,3.29023 5.32701,6.16264 -0.72421,9.9577 -6.3472,21.09918 -5.43149,11.1554 -9.83586,10.83507 -0.76598,-0.0557 -4.8535,-2.08555 -12.23473,-6.47253 -20.66048,-7.08532 -8.23425,-0.59887 -11.40958,0.71025 -2.98383,1.32304 -3.22059,4.57844 -0.22283,3.06391 3.83684,5.47675 4.0736,2.22134 10.07607,4.39045 6.20789,1.99155 13.23399,5.96768 7.23151,3.79856 13.21656,8.85402 5.99899,4.86396 9.61299,13.40461 3.61401,8.54065 2.82016,19.45582 -0.83563,11.48966 -7.45438,20.44113 -4.05621,5.48021 -10.10743,9.27527 z"
     id="text4"
     style="font-size:192px;font-family:'Titan One';-inkscape-font-specification:'Titan One, Normal';display:none;fill:#ff914b;fill-opacity:1"
     aria-label="S" /><path
     d="m 389.75358,187.56433 -52.37247,5.31368 q -6.05247,0.61409 -8.24004,-0.0375 -2.18757,-0.6516 -2.37555,-2.5044 l -7.93292,-78.18815 q -0.32584,-3.21151 2.37726,-4.85848 2.82662,-1.65949 10.36134,-2.42396 l 49.65504,-5.037966 q 2.59391,-0.26318 3.47117,8.383216 0.86473,8.52288 0.21674,13.20591 -0.66051,4.55951 -2.51331,4.74749 -8.0288,0.8146 -27.2138,1.13881 l 0.83966,8.27584 q 18.20577,-2.5959 23.76417,-3.15985 3.33504,-0.33837 4.12457,7.44339 0.78953,7.78176 -0.15562,11.99577 -0.83417,4.07797 -3.05753,4.30355 l -22.40724,1.77426 0.80206,7.90528 q 21.32956,-3.78638 29.48187,-4.61351 2.59392,-0.26318 3.47118,8.38322 0.87726,8.6464 0.21674,13.20591 -0.66052,4.55951 -2.51332,4.74749 z"
     id="text5"
     style="font-size:192px;font-family:'Titan One';-inkscape-font-specification:'Titan One, Normal';fill:#f1f3f7;fill-opacity:1;stroke-width:0.646636"
     aria-label="E" /><path
     d="m 447.72807,180.52201 q -0.44731,3.5812 -4.11788,4.74541 -3.54661,1.17109 -12.71992,0.66233 -9.1733,-0.50877 -15.2821,-2.46406 -5.97797,-2.07238 -5.83358,-4.67562 0.165,-2.97512 13.13659,-37.32096 12.97845,-34.46981 14.88562,-39.71086 0.70919,-1.57715 10.06146,-2.053206 9.48312,-0.59316 20.14398,-0.002 10.78484,0.598146 11.69425,4.378926 19.11146,79.14857 19.04271,80.38821 -0.0688,1.23963 -1.62507,2.39677 -3.62224,2.53469 -13.91122,1.96404 -21.94156,-1.21692 -22.14865,-6.4509 l -0.42085,-8.10575 -11.90051,-0.66003 z m 11.6084,-29.94503 -0.6219,-22.41657 -2.7272,-0.15125 -3.34493,22.19657 z"
     id="text6"
     style="font-size:192px;font-family:'Titan One';-inkscape-font-specification:'Titan One, Normal';fill:#f1f3f7;fill-opacity:1;stroke-width:0.646636"
     aria-label="A" /><path
     d="m 535.95982,188.62817 q -6.16278,0.74546 -8.33267,0.38264 -2.1848,-0.48608 -2.37863,-2.08841 l -9.27349,-76.66503 q -0.328,-2.71162 6.50774,-6.16472 6.82083,-3.57636 15.69523,-4.649816 7.88837,-0.95418 10.75603,2.075536 1.01188,1.12819 1.16097,2.36075 l 6.60475,54.60227 q 14.91792,-2.80497 22.55978,-3.72933 2.58836,-0.3131 3.58728,7.94503 0.984,8.13488 0.59034,14.18533 -0.39366,6.05046 -2.24249,6.27409 z"
     id="text7"
     style="font-size:192px;font-family:'Titan One';-inkscape-font-specification:'Titan One, Normal';fill:#f1f3f7;fill-opacity:1;stroke-width:0.646636"
     aria-label="L" /><path
     d="m 665.34361,175.33383 q -3.93489,2.41868 -10.76871,3.72827 -6.69996,1.19596 -17.21793,0.33569 -10.39425,-0.85014 -19.65686,-3.3517 -9.26261,-2.50156 -13.17401,-4.93914 -3.9114,-2.43759 -3.74946,-4.41744 0.56676,-6.92949 3.15387,-14.19202 2.59722,-7.38625 5.31952,-7.1636 0.49496,0.0405 9.99723,4.18103 9.50228,4.14056 14.45191,4.54539 4.94964,0.40483 6.51549,-0.46364 1.57598,-0.99222 1.73791,-2.97207 0.16194,-1.97986 -2.43891,-3.68741 -2.59073,-1.83129 -6.58309,-3.27895 -3.98224,-1.57139 -8.62597,-4.19344 -4.51997,-2.61193 -8.38077,-5.66821 -3.86078,-3.0563 -6.17825,-8.22859 -2.30734,-5.29603 -1.78107,-11.73056 2.24683,-27.470486 35.03818,-24.788456 12.25035,1.00196 21.02812,3.33929 8.78789,2.21359 12.21445,4.48695 3.56041,2.15974 3.4086,4.015856 -0.52628,6.43452 -4.22706,13.60596 -3.57703,7.18156 -6.42307,6.94877 -0.49497,-0.0405 -3.12618,-1.37681 -7.87339,-4.25646 -13.31799,-4.70177 -5.32086,-0.4352 -7.38168,0.39279 -1.93708,0.83812 -2.10914,2.94172 -0.16193,1.97985 2.44904,3.56366 2.62109,1.46006 6.48971,2.8976 4.00249,1.32392 8.52247,3.93584 4.65383,2.49831 8.49439,5.80208 3.85067,3.18003 6.13777,8.72354 2.28711,5.54352 1.71022,12.59675 -0.60725,7.42446 -4.93915,13.17402 -2.6547,3.51993 -6.58958,5.9386 z"
     id="text8"
     style="font-size:192px;font-family:'Titan One';-inkscape-font-specification:'Titan One, Normal';fill:#f1f3f7;fill-opacity:1;stroke-width:0.646636"
     aria-label="S" /><g
     id="g1"
     transform="matrix(0.28955212,-0.09146793,0.09146793,0.28955212,196.27013,110.7281)"><path
       style="fill:#dededf"
       d="m 287.96891,208.42578 c 5.11213,-23.89887 21.47292,-43.52372 36.13494,-63.02949 1.65475,-2.2587 3.42771,-4.67876 3.91557,-7.54441 0.42879,-2.78498 -0.8093,-6.1713 -3.51922,-7.04094 -1.36575,-0.50472 -2.9032,-0.26744 -4.27929,0.088 -8.79408,2.35886 -15.12884,9.99042 -23.42769,13.70377 -9.03521,4.04166 -19.44914,2.85846 -29.28244,1.72873 -5.68817,-0.69621 -15.7934,-0.73877 -21.48157,-1.43498 l 17.37132,52.2243 z"
       id="path1-3"
       sodipodi:nodetypes="cccccccccc" /><path
       style="fill:#f1f3f7"
       d="m 275.95942,45.612388 -9.47243,-19.096366 c -23.21148,-25.256638 -73.27096,-2.319634 -73.27096,-2.319634 -39.40259,17.24635 -54.5399,77.964652 -54.12378,99.006002 1.02256,51.70653 34.18095,52.16811 33.94375,108.35056 -0.24284,57.51403 -92.295936,2.20002 -92.295936,2.20002 -11.82803,-70.15167 -70.87903,-60.10835 -70.87903,-60.10835 0,0 15.61723,-0.33528 20.08006,35.53689 4.46287,35.87218 19.01072,36.48897 19.01072,36.48897 0,0 -17.68677,11.72255 -23.57852,27.95047 C 20.033154,288.32959 0,305.81655 0,305.81655 c 53.579554,15.69971 78.005874,-21.62971 78.005874,-21.62971 68.587146,67.97458 146.707636,47.97662 185.062516,-4.37711 0.0647,0.41929 0.21022,0.89768 0.27476,1.31702 0.91629,5.01003 1.84378,11.01999 6.40907,13.2489 5.04933,2.58349 11.04721,-1.20405 14.89981,-5.44755 12.60568,-13.82232 17.51033,-33.03859 19.00149,-51.6565 0.5668,-6.52676 0.67115,-13.26837 -1.15967,-19.56822 -2.68151,-9.03046 -8.85632,-15.66159 -16.10612,-21.84062 -15.42141,-42.87893 -19.86079,-40.09568 -40.47797,-60.1331 -14.20409,-14.49282 -13.07086,-21.05003 -7.70423,-44.22671 4.87048,-14.491313 43.59835,-31.748447 46.17559,-39.141702 z"
       id="path2-6"
       sodipodi:nodetypes="cccssccscsccccccccccccc" /><path
       style="fill:#646b79"
       d="m 284.18151,52.931885 c 5.82889,-6.728182 7.5195,-12.816882 7.5195,-12.816882 -7.13148,-11.786942 -23.95266,-14.008541 -26.64744,-13.813156 l 6.53321,21.012306 z"
       id="path3-7"
       sodipodi:nodetypes="ccccc" /><path
       style="fill:#dededf"
       d="m 216.64561,221.007 c 0,0 0.10226,0.19885 0.30672,0.59659 0.20449,0.39773 0.59186,1.05342 1.119,1.68755 1.01677,1.48867 2.73799,3.36947 5.28184,5.48105 2.54385,2.1116 6.00699,4.15287 9.95413,6.54873 1.97356,1.19792 4.18914,2.57315 6.28651,4.1097 2.17805,1.59566 4.31857,3.41174 6.42155,5.44827 4.26507,3.99238 8.32093,8.9472 11.7267,14.78933 3.40578,5.84216 6.22057,12.49098 7.76151,19.69415 0.84026,3.59081 1.23983,7.10653 2.73026,9.80998 1.40977,2.64434 3.74355,3.85822 6.5764,3.2064 2.83286,-0.65185 5.72957,-2.74448 8.06158,-5.2508 2.50933,-2.74834 4.57776,-5.57174 6.5224,-8.73375 3.83017,-6.24337 6.55257,-13.17438 8.47388,-20.19637 0.96063,-3.51102 1.70084,-7.05954 2.36044,-10.66716 0.60046,-3.52696 1.03958,-7.17213 1.44117,-10.59684 0.64185,-6.96765 0.8053,-13.78992 -1.01989,-19.58979 -0.26925,-0.81702 -0.51681,-1.49429 -0.78601,-2.31133 -0.32828,-0.73636 -0.63501,-1.33296 -0.88261,-2.01022 l -0.51118,-0.99433 -0.5112,-0.99432 c -0.38739,-0.65569 -0.77477,-1.31139 -1.08149,-1.90798 -1.66772,-2.46144 -3.31388,-4.78311 -5.2771,-6.84121 -3.78667,-4.13776 -7.74504,-7.53356 -11.27848,-10.49409 -3.53344,-2.96054 -6.66355,-5.62559 -9.0892,-7.8985 -2.42567,-2.27292 -4.28665,-4.13216 -5.56138,-5.43794 -1.21564,-1.38643 -1.82345,-2.07966 -1.82345,-2.07966 0,0 0.6669,0.61256 2.00074,1.83767 1.33382,1.22511 3.37211,2.84233 5.97507,4.87324 2.60295,2.03092 5.96944,4.3733 9.6802,7.09182 3.7914,2.77762 8.06682,5.90984 12.2137,10.06356 2.10298,2.03654 4.10935,4.37416 6.07818,6.93224 0.46804,0.71478 0.85542,1.37048 1.32348,2.08528 l 0.67252,1.11252 0.53277,1.13408 c 0.40895,0.79547 0.8179,1.59092 1.14619,2.3273 0.32828,0.73634 0.59747,1.55338 0.84509,2.23065 2.4546,6.63287 2.45809,14.0733 1.91848,21.23981 -0.59872,7.24717 -1.45538,14.67725 -3.37109,22.19922 -1.93727,7.38221 -4.71316,14.89384 -8.81725,21.68032 -2.06283,3.32335 -4.54497,6.71143 -7.19405,9.48133 -1.48308,1.51674 -2.98772,2.89372 -4.73436,4.09339 -1.74666,1.19968 -3.7353,2.22206 -6.03066,2.64785 -1.17723,0.25323 -2.31694,0.28602 -3.61799,0.20061 l -0.88172,-0.15015 -1.04308,-0.2683 c -0.82265,-0.23078 -0.76353,-0.31146 -1.60776,-0.682 -1.08622,-0.54785 -2.0758,-1.39679 -2.84496,-2.20822 -0.84982,-0.87051 -1.36101,-1.86485 -1.9313,-2.7785 -1.9641,-3.91819 -2.20785,-7.81571 -2.94601,-11.20765 -1.25577,-6.74632 -3.66723,-13.09965 -6.61056,-18.72698 -3.00244,-5.54665 -6.55834,-10.50706 -10.40411,-14.56415 -1.96321,-2.05812 -3.8833,-3.83667 -5.78181,-5.47546 -1.97917,-1.69789 -3.91522,-3.11627 -5.77059,-4.47553 -3.76984,-2.63787 -7.15791,-5.12 -9.52447,-7.47358 -2.50632,-2.33203 -3.99114,-4.5355 -4.86815,-6.04576 -0.40896,-0.79545 -0.71567,-1.39205 -0.92014,-1.78978 -0.50558,-0.49437 -0.68849,-0.75231 -0.68849,-0.75231 z"
       id="path4-5" /><ellipse
       style="fill:#646b79"
       cx="108.01096"
       cy="208.74828"
       rx="9.3000002"
       ry="8.6000004"
       id="ellipse7"
       transform="rotate(-53.773107)" /><path
       style="fill:#dededf"
       d="m 187.02304,220.60665 c 0,0 -8.67939,28.10569 4.14126,37.00237 0,0 -12.63599,-4.91851 -15.16565,-11.1105 0,0 -11.40162,24.86951 5.8321,43.81731 0,0 -24.42485,-21.9054 -16.73257,-35.11256 0,0 20.02813,-14.94959 5.58401,-52.93923 -0.0806,-0.059 14.95054,22.7785 16.34085,18.34261 z"
       id="path8"
       sodipodi:nodetypes="ccccccc" /></g></svg>
